<?xml version="1.0" ?><!DOCTYPE svg  PUBLIC '-//W3C//DTD SVG 1.1//EN'  'http://www.w3.org/Graphics/SVG/1.1/DTD/svg11.dtd'><svg height="512px" style="enable-background:new 0 0 512 512;" version="1.1" viewBox="0 0 512 512" width="512px" xml:space="preserve" xmlns="http://www.w3.org/2000/svg" xmlns:xlink="http://www.w3.org/1999/xlink"><g id="_x31_55_x2C__Open_x2C__Book_x2C__Page_x2C__Layout_x2C__Cover"><g id="XMLID_5067_"><g id="XMLID_6730_"><g><g><g><path d="M466,116v238c0,14.36-11.64,26-26,26l-158,31c-14.36,0-26-11.64-26-26V147        c0-14.36,11.639-26,26-26l158-31C454.36,90,466,101.64,466,116z" style="fill:#C2E3F7;"/></g></g><g><path d="M256,147v238c0,14.36-11.64,26-26,26L72,380c-14.36,0-26-11.64-26-26V116       c0-14.36,11.64-26,26-26l158,31C244.36,121,256,132.64,256,147z" style="fill:#FFFFFF;"/></g></g><g><g><g><path d="M282,421c-19.851,0-36-16.149-36-36c0-5.522,4.477-10,10-10c5.522,0,10,4.478,10,10        c0,8.535,6.718,15.53,15.144,15.978l156.931-30.79c0.635-0.125,1.279-0.188,1.926-0.188c8.822,0,16-7.178,16-16V116        c0-8.535-6.718-15.53-15.144-15.978l-156.931,30.791C283.291,130.938,282.646,131,282,131c-8.822,0-16,7.178-16,16        c0,5.523-4.478,10-10,10c-5.523,0-10-4.477-10-10c0-19.5,15.583-35.429,34.951-35.985l157.123-30.828        C438.709,80.063,439.354,80,440,80c19.851,0,36,16.149,36,36v238c0,19.5-15.583,35.429-34.951,35.985l-157.123,30.827        C283.291,420.938,282.646,421,282,421z" style="fill:#0B93E2;"/></g><g><path d="M230,421c-0.646,0-1.291-0.063-1.925-0.188L70.951,389.985C51.583,389.429,36,373.5,36,354V116        c0-19.851,16.149-36,36-36c0.646,0,1.291,0.063,1.925,0.187l157.124,30.828C250.417,111.571,266,127.5,266,147v238        C266,404.851,249.851,421,230,421z M71.144,100.022C62.718,100.47,56,107.465,56,116v238c0,8.822,7.178,16,16,16        c0.646,0,1.291,0.063,1.925,0.188l156.931,30.79C239.282,400.53,246,393.535,246,385V147c0-8.822-7.178-16-16-16        c-0.646,0-1.291-0.063-1.925-0.187L71.144,100.022z" style="fill:#0B93E2;"/></g></g></g></g></g></g><g id="Layer_1"/></svg>